{
  "accessors": [
    {
      "name": "12249_Bird_v1_1_0_positions",
      "componentType": 5126,
      "count": 9760,
      "min": [
        -14.037199974060059,
        -22.525400161743164,
        -0.04580000042915344
      ],
      "max": [
        14.037199974060059,
        30.744199752807617,
        54.7151985168457
      ],
      "type": "VEC3",
      "bufferView": 0,
      "byteOffset": 0
    },
    {
      "name": "12249_Bird_v1_1_0_normals",
      "componentType": 5126,
      "count": 9760,
      "min": [
        -0.9999393224716187,
        -0.9999469518661499,
        -1
      ],
      "max": [
        0.9999393224716187,
        0.9992313385009766,
        0.9999268651008606
      ],
      "type": "VEC3",
      "bufferView": 1,
      "byteOffset": 0
    },
    {
      "name": "12249_Bird_v1_1_0_texcoords",
      "componentType": 5126,
      "count": 9760,
      "min": [
        0.008700000122189522,
        0.011900000274181366
      ],
      "max": [
        0.989799976348877,
        0.9921000003814697
      ],
      "type": "VEC2",
      "bufferView": 2,
      "byteOffset": 0
    },
    {
      "name": "12249_Bird_v1_1_0_indices",
      "componentType": 5123,
      "count": 53568,
      "min": [
        0
      ],
      "max": [
        9759
      ],
      "type": "SCALAR",
      "bufferView": 3,
      "byteOffset": 0
    }
  ],
  "asset": {
    "generator": "obj2gltf",
    "version": "2.0"
  },
  "buffers": [
    {
      "name": "12249_Bird_v1_L2",
      "byteLength": 1370556,
      "uri": "data:application/octet-stream;base64,"
    }
  ],
  "bufferViews": [
    {
      "name": "bufferView_0",
      "buffer": 0,
      "byteLength": 117120,
      "byteOffset": 0,
      "byteStride": 12,
      "target": 34962
    },
    {
      "name": "bufferView_1",
      "buffer": 0,
      "byteLength": 117120,
      "byteOffset": 117120,
      "byteStride": 12,
      "target": 34962
    },
    {
      "name": "bufferView_2",
      "buffer": 0,
      "byteLength": 78080,
      "byteOffset": 234240,
      "byteStride": 8,
      "target": 34962
    },
    {
      "name": "bufferView_3",
      "buffer": 0,
      "byteLength": 107136,
      "byteOffset": 312320,
      "target": 34963
    },
    {
      "buffer": 0,
      "byteOffset": 419456,
      "byteLength": 951099
    }
  ],
  "images": [
    {
      "name": "12249_Bird_v1_diff",
      "mimeType": "image/jpeg",
      "bufferView": 4
    }
  ],
  "materials": [
    {
      "name": "12249_Bird_v1",
      "pbrMetallicRoughness": {
        "baseColorTexture": {
          "index": 0
        },
        "baseColorFactor": [
          1,
          1,
          1,
          1
        ],
        "metallicFactor": 0,
        "roughnessFactor": 0.983
      },
      "emissiveFactor": [
        0,
        0,
        0
      ],
      "alphaMode": "OPAQUE",
      "doubleSided": false
    }
  ],
  "meshes": [
    {
      "name": "12249_Bird_v1_1",
      "primitives": [
        {
          "attributes": {
            "POSITION": 0,
            "NORMAL": 1,
            "TEXCOORD_0": 2
          },
          "indices": 3,
          "material": 0,
          "mode": 4
        }
      ]
    }
  ],
  "nodes": [
    {
      "name": "12249_Bird_v1",
      "mesh": 0
    }
  ],
  "samplers": [
    {
      "wrapS": 10497,
      "wrapT": 10497
    }
  ],
  "scene": 0,
  "scenes": [
    {
      "nodes": [
        0
      ]
    }
  ],
  "textures": [
    {
      "name": "12249_Bird_v1_diff",
      "sampler": 0,
      "source": 0
    }
  ]
}
